# xmcd CD database file
#
# Track frame offsets:
#	150
#	18668
#	37360
#	55970
#	77803
#	96209
#	119586
#	137137
#	156572
#	177185
#	194868
#	217373
#	236213
#	255187
#
# Disc length: 3693 seconds
#
# Revision: 0
# Processed by: cddbd v1.5.1PL2 Copyright (c) Steve Scherf et al.
# Submitted via: CDex 1.51
#
DISCID=df0e6b0e
DTITLE=Sampler - Capital Tropical 2006
DYEAR=2005
DGENRE=Salsa
TTITLE0=Donaldo Flores - Que Cosas Tiene La Vida (Remix) [Salsa]
TTITLE1=Juicy and Eric - La Paga [Salsa]
TTITLE2=Argelys - Don't Speak [Bachata]
TTITLE3=Habana Express - Juanita Y Maikel [Cha Cha Chá]
TTITLE4=Luilly Hernandez - Hay Una Cosa [Merengue]
TTITLE5=Nino Segarra - La Vida Es Así [Salsa]
TTITLE6=Deséo - Me Muero Por Tu Amor [Bachata]
TTITLE7=Grupaso - Con Dos Clavos Dentro [Merengue]
TTITLE8=La Solución - Te Equivocaste [Cha Cha Chá]
TTITLE9=Issaac Delgado - Y Que Tu Quieres Que Haga [Salsa]
TTITLE10=Amargao - Te Veo Venir Soledad [Bachata]
TTITLE11=Merenkan - El Hombre Celoso [Merengue]
TTITLE12=Bombón - Se Escaparon [Cha Cha Chá]
TTITLE13=Manolé - Como Una Reina (Remix) [Salsa]
EXTD=YEAR: 2005
EXTT0=
EXTT1=
EXTT2=
EXTT3=
EXTT4=
EXTT5=
EXTT6=
EXTT7=
EXTT8=
EXTT9=
EXTT10=
EXTT11=
EXTT12=
EXTT13=
PLAYORDER=
